<svg width="64" height="27" viewBox="0 0 64 27" fill="none" xmlns="http://www.w3.org/2000/svg">
<path d="M32 15.5814L25.4976 26.8428H16.2479L27.3751 7.56716L32 15.5814Z" fill="white"/>
<path d="M47.24 26.8428H38.5024L32 15.5814L36.3688 8.01018L47.24 26.8428Z" fill="white"/>
<path d="M32 6.50242C33.7956 6.50242 35.2512 5.04682 35.2512 3.25124C35.2512 1.45567 33.7956 6.48499e-05 32 6.48499e-05C30.2044 6.48499e-05 28.7488 1.45567 28.7488 3.25124C28.7488 5.04682 30.2044 6.50242 32 6.50242Z" fill="white"/>
<path d="M48.5029 0H40.9943L38.2464 4.75893L50.9951 26.8428H64L48.5029 0Z" fill="white"/>
<path d="M15.4971 7.62939e-06L0 26.8428H12.4928L25.4976 4.31599L23.0056 7.62939e-06H15.4971Z" fill="white"/>
</svg>
